<?xml version="1.0" standalone="no"?>
<!DOCTYPE svg PUBLIC "-//W3C//DTD SVG 20010904//EN"
 "http://www.w3.org/TR/2001/REC-SVG-20010904/DTD/svg10.dtd">
<svg version="1.0" xmlns="http://www.w3.org/2000/svg"
 width="840.000000pt" height="481.000000pt" viewBox="0 0 840.000000 481.000000"
 preserveAspectRatio="xMidYMid meet">
<metadata>
Created by potrace 1.16, written by Peter Selinger 2001-2019
</metadata>
<g transform="translate(0.000000,481.000000) scale(0.100000,-0.100000)"
fill="#000" stroke="none">
<path d="M3242 4381 c-66 -23 -124 -77 -152 -144 -27 -61 -24 -160 5 -222 12
-27 266 -288 804 -827 l786 -788 -786 -788 c-538 -539 -792 -800 -804 -827
-30 -63 -32 -161 -5 -224 41 -93 145 -161 250 -161 20 0 59 7 86 16 45 15 126
93 947 913 496 495 910 915 924 940 20 32 27 61 31 117 8 131 59 73 -950 1081
-879 877 -904 902 -957 917 -70 21 -113 20 -179 -3z"/>
</g>
</svg>
